<svg width="64" height="70" viewBox="0 0 64 70" fill="none" xmlns="http://www.w3.org/2000/svg">
<g filter="url(#filter0_d_601_2485)">
<circle cx="32" cy="28" r="28" fill="#7065F0"/>
<g clip-path="url(#clip0_601_2485)">
<path d="M38.9999 24.71L33.6669 20.562C33.1989 20.1979 32.6229 20.0002 32.0299 20.0002C31.437 20.0002 30.8609 20.1979 30.3929 20.562L25.0589 24.71C24.7384 24.9593 24.479 25.2785 24.3007 25.6434C24.1223 26.0082 24.0297 26.4089 24.0299 26.815V34.015C24.0299 34.5454 24.2406 35.0542 24.6157 35.4292C24.9908 35.8043 25.4995 36.015 26.0299 36.015H38.0299C38.5603 36.015 39.0691 35.8043 39.4441 35.4292C39.8192 35.0542 40.0299 34.5454 40.0299 34.015V26.815C40.0299 25.992 39.6499 25.215 38.9999 24.71Z" fill="white" stroke="white" stroke-width="3" stroke-linecap="round" stroke-linejoin="round"/>
<path d="M36 31C33.79 32.333 30.208 32.333 28 31" stroke="#7065F0" stroke-width="3" stroke-linecap="round" stroke-linejoin="round"/>
</g>
<path d="M33.732 61C32.9622 62.3333 31.0377 62.3333 30.2679 61L26.8038 55C26.034 53.6667 26.9963 52 28.5359 52L35.4641 52C37.0037 52 37.966 53.6667 37.1962 55L33.732 61Z" fill="#7065F0"/>
</g>
<defs>
<filter id="filter0_d_601_2485" x="0" y="0" width="64" height="70" filterUnits="userSpaceOnUse" color-interpolation-filters="sRGB">
<feFlood flood-opacity="0" result="BackgroundImageFix"/>
<feColorMatrix in="SourceAlpha" type="matrix" values="0 0 0 0 0 0 0 0 0 0 0 0 0 0 0 0 0 0 127 0" result="hardAlpha"/>
<feOffset dy="4"/>
<feGaussianBlur stdDeviation="2"/>
<feComposite in2="hardAlpha" operator="out"/>
<feColorMatrix type="matrix" values="0 0 0 0 0 0 0 0 0 0 0 0 0 0 0 0 0 0 0.25 0"/>
<feBlend mode="normal" in2="BackgroundImageFix" result="effect1_dropShadow_601_2485"/>
<feBlend mode="normal" in="SourceGraphic" in2="effect1_dropShadow_601_2485" result="shape"/>
</filter>
<clipPath id="clip0_601_2485">
<rect width="24" height="24" fill="white" transform="translate(20 16)"/>
</clipPath>
</defs>
</svg>
